PathFileType	4	(X/Y/Z)	E:\Qualisys_Data\Carbon_Farble_Plate\Data\Amateur_Runner\S1\T1\S1T1V13_c3d.trc
DataRate	CameraRate	NumFrames	NumMarkers	Units	OrigDataRate	OrigDataStartFrame	OrigNumFrames
200.000000	200.000000	4	39	mm	200.000000	287	328
Frame#	Time	LSHO			RSHO			LICST			RICST			LASIS			LHEEL			RASIS			LTROC			RTROC			SACR			LTH1			LSK4			LTH2			LTH3			RHM5			LSK2			LTH4			RTH1			LTOE			RTH2			RTH3			RTH4			LLEP			RLEP			LSK1			LSK3			RSK1			LHM5			RSK2			LFT1			RSK3			RSK4			LLME			RLME			RTOE			RHEEL			RFT1			RFT2			LFT2			
		X1	Y1	Z1	X2	Y2	Z2	X3	Y3	Z3	X4	Y4	Z4	X5	Y5	Z5	X6	Y6	Z6	X7	Y7	Z7	X8	Y8	Z8	X9	Y9	Z9	X10	Y10	Z10	X11	Y11	Z11	X12	Y12	Z12	X13	Y13	Z13	X14	Y14	Z14	X15	Y15	Z15	X16	Y16	Z16	X17	Y17	Z17	X18	Y18	Z18	X19	Y19	Z19	X20	Y20	Z20	X21	Y21	Z21	X22	Y22	Z22	X23	Y23	Z23	X24	Y24	Z24	X25	Y25	Z25	X26	Y26	Z26	X27	Y27	Z27	X28	Y28	Z28	X29	Y29	Z29	X30	Y30	Z30	X31	Y31	Z31	X32	Y32	Z32	X33	Y33	Z33	X34	Y34	Z34	X35	Y35	Z35	X36	Y36	Z36	X37	Y37	Z37	X38	Y38	Z38	X39	Y39	Z39	

288	1.435	1904.026123046875	1512.32666015625	-585.6470947265625	1843.00927734375	1513.5927734375	-266.1681518554688	1827.361328125	1043.482055664062	-550.493408203125	1827.6025390625	1072.251586914062	-252.162353515625	1869.593994140625	1001.787414550781	-524.5846557617188	1366.826904296875	190.2459411621094	-441.2189025878906	1861.734375	1023.080932617188	-261.6373596191406	1742.397338867188	934.817138671875	-561.91162109375	1765.915283203125	934.32470703125	-222.0453796386719	1710.515014648438	1079.6923828125	-398.1548156738281	1825.442260742188	761.3240966796875	-538.5770263671875	1466.197631835938	321.1252746582031	-475.9865112304688	1746.90625	778.250244140625	-567.8106079101562	1795.237426757812	663.0774536132812	-519.9957275390625	1945.07958984375	126.8119659423828	-241.0389862060547	1522.9443359375	397.916748046875	-517.3665161132812	1715.181396484375	684.6936645507812	-541.631103515625	1937.441162109375	867.0135498046875	-251.1932373046875	1567.684204101562	46.70923233032227	-448.0596923828125	1874.87939453125	825.7577514648438	-221.0618438720703	1992.468505859375	780.5017700195312	-252.6325531005859	1924.497924804688	739.5682373046875	-232.1694183349609	1697.502075195312	529.0081176757812	-504.8491516113281	2019.9013671875	599.2018432617188	-267.2593383789062	1590.041015625	345.6781311035156	-509.4000549316406	1522.6259765625	269.8877868652344	-503.6764831542969	1956.627075195312	419.6159362792969	-250.1510467529297	1502.010498046875	59.35672760009766	-508.3886108398438	1882.451171875	451.1382141113281	-264.4917907714844	1364.397827148438	165.2823028564453	-410.6116333007812	1920.465576171875	326.4932861328125	-264.1989440917969	1848.239135742188	358.1952819824219	-286.0735473632812	1427.43408203125	190.1963653564453	-491.2153015136719	1840.5126953125	218.3483276367188	-265.5353393554688	2020.14794921875	134.5301971435547	-313.7340087890625	1770.766235351562	191.4300079345703	-311.64892578125	1778.05322265625	160.9191741943359	-342.5624694824219	1770.89599609375	166.7868347167969	-284.6301879882812	1353.427368164062	163.4332580566406	-463.2182006835938
289	1.44	1919.722412109375	1517.067626953125	-583.8499145507812	1857.279541015625	1517.028198242188	-264.9791870117188	1844.0517578125	1046.6875	-550.038330078125	1841.938354492188	1075.91650390625	-252.9460754394531	1885.939331054688	1004.774047851562	-524.0618286132812	1376.049438476562	198.9549255371094	-442.0286254882812	1878.208129882812	1026.82666015625	-261.295654296875	1757.898071289062	938.8235473632812	-561.5960083007812	1782.071166992188	938.03271484375	-221.596435546875	1727.023071289062	1083.216186523438	-398.0727233886719	1838.649658203125	764.4066772460938	-539.093994140625	1474.488525390625	326.8094787597656	-476.4954528808594	1759.951049804688	782.151611328125	-567.5328369140625	1806.785400390625	666.4603881835938	-520.2477416992188	1979.148193359375	125.3945846557617	-241.4591064453125	1531.2451171875	403.9170837402344	-517.7448120117188	1726.87548828125	689.687255859375	-542.0609130859375	1953.484741210938	869.773193359375	-251.0749359130859	1569.92236328125	46.29685211181641	-449.2886047363281	1890.645263671875	829.47216796875	-220.4340362548828	2007.77197265625	783.36767578125	-252.7458801269531	1939.824096679688	742.9260864257812	-233.0860748291016	1706.740356445312	534.4987182617188	-505.8026123046875	2034.328247070312	601.4662475585938	-267.4698486328125	1598.705810546875	351.2293701171875	-510.0648803710938	1531.111328125	275.5449829101562	-504.4615173339844	1977.996215820312	418.6538696289062	-249.4294586181641	1504.923095703125	61.14239120483398	-509.3504333496094	1902.692504882812	447.2188415527344	-264.4605712890625	1372.683959960938	174.4235382080078	-411.2937927246094	1945.670532226562	324.0361938476562	-263.761474609375	1872.273071289062	352.9791259765625	-285.064208984375	1436.185546875	196.0353393554688	-492.5408020019531	1870.314819335938	212.1775512695312	-264.7975158691406	2053.3505859375	135.9986419677734	-314.1592407226562	1801.627197265625	182.7376403808594	-311.2452392578125	1813.203857421875	154.2956390380859	-342.6970520019531	1803.022583007812	157.663330078125	-283.8026428222656	1361.817749023438	172.7005462646484	-464.0218811035156
290	1.445	1935.174926757812	1521.198364257812	-582.3106079101562	1871.554809570312	1520.405639648438	-264.0015563964844	1860.47119140625	1049.810913085938	-549.4288330078125	1858.261108398438	1079.239379882812	-252.8821716308594	1902.141357421875	1007.906555175781	-523.6195068359375	1386.005615234375	207.8560638427734	-442.2240905761719	1894.458374023438	1029.935913085938	-260.9229431152344	1773.601196289062	942.6876220703124	-561.0707397460938	1798.358276367188	941.2470703125	-221.2558746337891	1743.319580078125	1086.79150390625	-397.8624572753906	1851.21875	767.2528076171875	-539.6399536132812	1483.701416015625	332.4104919433594	-476.7242126464844	1773.299682617188	786.6758422851562	-568.0631103515625	1818.437622070312	670.0728759765625	-520.9222412109375	2013.196655273438	124.296760559082	-241.8534545898438	1540.193725585938	409.7037658691406	-518.2550048828125	1738.71337890625	694.509033203125	-542.5794067382812	1969.138671875	872.7068481445312	-250.9842987060547	1572.053344726562	45.40935516357422	-448.6889343261719	1905.949462890625	832.2713012695312	-221.5162200927734	2022.874877929688	785.7561645507812	-253.0088806152344	1954.393432617188	745.2425537109375	-234.2841949462891	1716.504638671875	539.0188598632812	-506.4559326171875	2048.489013671875	603.5476684570312	-267.3407287597656	1607.28857421875	357.00244140625	-511.6675720214844	1540.018798828125	280.8474731445312	-506.2416076660156	1999.721923828125	417.4346923828125	-249.2169494628906	1508.61279296875	63.41623306274414	-509.8085632324219	1923.01953125	442.7499389648438	-263.5126342773438	1382.083740234375	183.667724609375	-411.4523620605469	1970.877197265625	321.6129455566406	-263.4608459472656	1896.42919921875	347.442626953125	-284.5297546386719	1445.724731445312	202.12158203125	-493.8767700195312	1901.119750976562	205.9766540527344	-265.2032775878906	2086.38427734375	138.1004028320312	-315.1254272460938	1832.932983398438	173.8899383544922	-310.987548828125	1845.302368164062	145.1837768554688	-342.4700012207031	1835.255004882812	148.9771270751953	-283.6900329589844	1370.606811523438	182.1441802978516	-464.0888366699219
291	1.45	1950.561279296875	1525.1572265625	-580.7771606445312	1886.178955078125	1523.601440429688	-263.1740112304688	1876.924560546875	1052.914672851562	-549.4615478515625	1874.505249023438	1081.948486328125	-252.9600677490234	1918.551513671875	1010.623474121094	-523.1968994140625	1396.427368164062	217.0917663574219	-443.1169128417969	1910.479370117188	1032.665405273438	-260.9269714355469	1789.1181640625	946.6259765625	-560.759521484375	1814.24267578125	944.5922241210938	-220.7520904541016	1759.73779296875	1089.716674804688	-397.6278076171875	1864.61669921875	770.2578735351562	-540.3582153320312	1493.011962890625	337.6523132324219	-477.5103759765625	1786.330810546875	790.4814453125	-568.104248046875	1830.350463867188	673.2304077148438	-522.2599487304688	2046.966674804688	123.8564224243164	-242.2705688476562	1549.489379882812	414.7293395996094	-518.4260864257812	1750.947631835938	698.7921142578125	-542.354248046875	1985.018798828125	875.2371215820312	-250.2270812988281	1574.658447265625	44.62892913818359	-448.9926147460938	1921.28857421875	834.6478271484375	-221.6376495361328	2038.072021484375	787.7108154296875	-253.1815185546875	1969.14990234375	747.5864868164062	-235.1883087158203	1726.815795898438	543.7141723632812	-507.3831176757812	2062.12158203125	604.8832397460938	-267.6725158691406	1615.950805664062	362.4919738769531	-513.1495971679688	1549.552001953125	286.4242248535156	-507.2131958007812	2020.718139648438	416.3099975585938	-249.1856079101562	1512.681640625	66.19960021972656	-509.5513610839844	1943.10546875	438.5024719238281	-263.1196899414062	1391.447875976562	193.2811889648438	-412.598876953125	1996.18896484375	319.8672180175781	-263.05615234375	1920.573974609375	341.9759521484375	-283.6862487792969	1454.38671875	206.8690643310547	-494.1875305175781	1931.092895507812	200.3572540283203	-265.1156005859375	2119.269287109375	140.5436706542969	-315.87744140625	1864.257934570312	165.8146820068359	-310.1286010742188	1877.85205078125	137.4356842041016	-341.6501159667969	1867.885131835938	140.5931091308594	-282.9055480957031	1379.76171875	192.0634918212891	-465.2573852539062
